<svg width="16" height="12" viewBox="0 0 16 12" fill="none" xmlns="http://www.w3.org/2000/svg">
<path d="M7.99994 6L-6.10352e-05 1.95313V1C-6.10352e-05 0.71875 0.0988973 0.481771 0.296814 0.289063C0.494731 0.0963542 0.729106 0 0.999939 0H14.9999C15.2708 0 15.5051 0.0963542 15.7031 0.289063C15.901 0.481771 15.9999 0.71875 15.9999 1V1.95313L7.99994 6ZM7.49994 7H8.49994L15.9999 3.10938V11C15.9999 11.2708 15.901 11.5052 15.7031 11.7031C15.5051 11.901 15.2708 12 14.9999 12H0.999939C0.729106 12 0.494731 11.901 0.296814 11.7031C0.0988973 11.5052 -6.10352e-05 11.2708 -6.10352e-05 11V3.10938L7.49994 7Z" fill="#91909A"/>
</svg>
