<svg width="20" height="20" viewBox="0 0 20 20" fill="none" xmlns="http://www.w3.org/2000/svg">
<path fill-rule="evenodd" clip-rule="evenodd" d="M10.4274 2C7.28514 2 4 4.36522 4 8.26087C4 11.9478 9.71328 17.5826 9.92753 17.7913C10.0704 17.9304 10.2132 18 10.4274 18C10.6417 18 10.7845 17.9304 10.9274 17.7913C11.1416 17.5826 16.8549 11.9478 16.8549 8.26087C16.8549 4.36522 13.5697 2 10.4274 2ZM10.4272 10.3479C9.21317 10.3479 8.28477 9.44359 8.28477 8.26098C8.28477 7.07837 9.21317 6.17402 10.4272 6.17402C11.6413 6.17402 12.5697 7.07837 12.5697 8.26098C12.5697 9.44359 11.6413 10.3479 10.4272 10.3479Z" fill="#91909A"/>
</svg>
