<svg width="20" height="18" viewBox="0 0 20 18" fill="none" xmlns="http://www.w3.org/2000/svg">
<path d="M10 1C7.82531 1 6.0625 2.78485 6.0625 4.98672C6.0625 6.76682 8.63594 10.0112 9.62187 11.1889C9.82156 11.4275 10.1788 11.4275 10.3781 11.1889C11.3641 10.0112 13.9375 6.76682 13.9375 4.98672C13.9375 2.78485 12.1747 1 10 1ZM10 6.31562C9.275 6.31562 8.6875 5.72078 8.6875 4.98672C8.6875 4.25266 9.275 3.65781 10 3.65781C10.725 3.65781 11.3125 4.25266 11.3125 4.98672C11.3125 5.72078 10.725 6.31562 10 6.31562ZM1.62875 7.83279C1.44318 7.90794 1.2841 8.03766 1.17203 8.20521C1.05997 8.37277 1.00004 8.57047 1 8.77284V16.6931C1 17.0513 1.35719 17.2962 1.68563 17.1633L6 15.175V7.8002C5.72375 7.29459 5.49781 6.80226 5.33594 6.33144L1.62875 7.83279ZM10 12.3802C9.56031 12.3802 9.14437 12.1846 8.85906 11.8436C8.24469 11.1095 7.59125 10.2736 7 9.41609V15.1747L13 17.1997V9.41641C12.4087 10.2736 11.7556 11.1098 11.1409 11.8439C10.8556 12.1846 10.4397 12.3802 10 12.3802ZM18.3144 6.0992L14 8.0875V17.2L18.3713 15.4297C18.5568 15.3546 18.7159 15.2249 18.828 15.0573C18.9401 14.8898 19 14.692 19 14.4897V6.56938C19 6.21121 18.6428 5.96631 18.3144 6.0992Z" fill="#91909A"/>
</svg>
