<svg width="15" height="16" viewBox="0 0 15 16" fill="none" xmlns="http://www.w3.org/2000/svg">
<path fill-rule="evenodd" clip-rule="evenodd" d="M9.58183 9.75114L8.04018 11.4395L4.10415 7.06515L5.62334 5.35181C5.81125 5.13937 5.86501 4.8218 5.75941 4.54799L4.17746 0.444493C4.04821 0.110037 3.71795 -0.0686426 3.40135 0.0245998L0.495068 0.877599C0.195984 0.963603 -0.00950986 1.26851 0.000339326 1.61168C0.185178 5.36568 1.58964 8.91755 3.95289 11.6076C6.37418 14.2344 9.57116 15.7951 12.9498 15.9996C13.2586 16.0106 13.533 15.7822 13.6103 15.4498L14.3779 12.2199C14.4618 11.868 14.301 11.501 14 11.3573L10.3077 9.59919C10.0605 9.48069 9.77332 9.5408 9.58183 9.75114Z" fill="#91909A"/>
</svg>
