<svg width="17" height="16" viewBox="0 0 17 16" fill="none" xmlns="http://www.w3.org/2000/svg">
<path fill-rule="evenodd" clip-rule="evenodd" d="M8.36258 9.33336C10.6687 9.33336 12.5441 7.53935 12.5441 5.33335V4.00001C12.5441 1.79401 10.6687 0 8.36258 0C6.05649 0 4.18109 1.79401 4.18109 4.00001V5.33335C4.18109 7.53935 6.05649 9.33336 8.36258 9.33336ZM14.8252 8.3638H13.3047V9.81835H11.7841V11.2729H13.3047V12.7275H14.8252V11.2729H16.3458V9.81835H14.8252V8.3638ZM10.3805 10.6667C10.7031 12.188 12.1165 13.8275 14.6583 13.8275C15.1761 13.8275 15.6632 13.7129 16.1044 13.5189C16.1321 13.5652 16.159 13.6098 16.1849 13.6528C16.5407 14.2432 16.726 14.5505 16.726 15.3334V16H0V15.3334C0 12.76 2.18901 10.6667 4.87841 10.6667H10.3805Z" fill="#91909A"/>
</svg>
